<svg xmlns="http://www.w3.org/2000/svg" width="760" height="300" viewBox="0 0 760 300" data-palette="e68656-e7d66a-f6acaf-94b6141b82f6" role="img" ><filter id="nbglow" x="-60%" y="-60%" width="220%" height="220%"><feGaussianBlur stdDeviation="3.2" result="b"/><feMerge><feMergeNode in="b"/><feMergeNode in="SourceGraphic"/></feMerge></filter><style>
.pulse { animation: nb-pulse 3.2s ease-in-out infinite; }
@keyframes nb-pulse { 0%,100% { opacity: .25; } 50% { opacity: 1; } }
.flow { stroke-dasharray: 5 9; animation: nb-flow 1.6s linear infinite; }
@keyframes nb-flow { to { stroke-dashoffset: -14; } }
.glowdot { animation: nb-dot 2.6s ease-in-out infinite; }
@keyframes nb-dot { 0%,100% { opacity: .2; } 50% { opacity: 1; } }
@media (prefers-reduced-motion: reduce) {
  .pulse, .flow, .glowdot { animation: none !important; }
}
</style><rect x="8" y="8" width="744" height="284" rx="12" fill="#fef9f7" stroke="#f7dacb" stroke-width="1"/><text x="38" y="44" font-family="ui-monospace, SFMono-Regular, Menlo, Consolas, monospace" font-size="14" fill="#a6603e" text-anchor="start" font-weight="600">./nianbao-out/</text><text x="722" y="44" font-family="ui-monospace, SFMono-Regular, Menlo, Consolas, monospace" font-size="11.5" fill="#72686b" text-anchor="end">6 张卡片 × 2 种比例 = 12 张 PNG</text><rect x="39.0" y="70" width="40" height="96" rx="6" fill="#fdf7f3" stroke="#a6603e" stroke-width="1"/><circle cx="59.0" cy="96" r="5" fill="#a6603e" class="pulse"/><line x1="49.0" y1="114" x2="69.0" y2="114" stroke="#72686b" stroke-width="2"/><line x1="49.0" y1="124" x2="65.0" y2="124" stroke="#72686b" stroke-width="2" opacity=".6"/><line x1="49.0" y1="134" x2="69.0" y2="134" stroke="#72686b" stroke-width="2" opacity=".4"/><rect x="87.0" y="94" width="54" height="54" rx="6" fill="#fdf7f3" stroke="#a6603e" stroke-width="1"/><circle cx="114.0" cy="114" r="4" fill="#a6603e"/><line x1="99.0" y1="128" x2="129.0" y2="128" stroke="#72686b" stroke-width="2" opacity=".6"/><text x="87.0" y="174" font-family="ui-monospace, SFMono-Regular, Menlo, Consolas, monospace" font-size="11" fill="#271c1c" text-anchor="middle">hero</text><rect x="155.0" y="70" width="40" height="96" rx="6" fill="#fdf7f3" stroke="#7d7339" stroke-width="1"/><circle cx="175.0" cy="96" r="5" fill="#7d7339" class="pulse"/><line x1="165.0" y1="114" x2="185.0" y2="114" stroke="#72686b" stroke-width="2"/><line x1="165.0" y1="124" x2="181.0" y2="124" stroke="#72686b" stroke-width="2" opacity=".6"/><line x1="165.0" y1="134" x2="185.0" y2="134" stroke="#72686b" stroke-width="2" opacity=".4"/><rect x="203.0" y="94" width="54" height="54" rx="6" fill="#fdf7f3" stroke="#7d7339" stroke-width="1"/><circle cx="230.0" cy="114" r="4" fill="#7d7339"/><line x1="215.0" y1="128" x2="245.0" y2="128" stroke="#72686b" stroke-width="2" opacity=".6"/><text x="203.0" y="174" font-family="ui-monospace, SFMono-Regular, Menlo, Consolas, monospace" font-size="11" fill="#271c1c" text-anchor="middle">correction</text><rect x="271.0" y="70" width="40" height="96" rx="6" fill="#fdf7f3" stroke="#936769" stroke-width="1"/><circle cx="291.0" cy="96" r="5" fill="#936769" class="pulse"/><line x1="281.0" y1="114" x2="301.0" y2="114" stroke="#72686b" stroke-width="2"/><line x1="281.0" y1="124" x2="297.0" y2="124" stroke="#72686b" stroke-width="2" opacity=".6"/><line x1="281.0" y1="134" x2="301.0" y2="134" stroke="#72686b" stroke-width="2" opacity=".4"/><rect x="319.0" y="94" width="54" height="54" rx="6" fill="#fdf7f3" stroke="#936769" stroke-width="1"/><circle cx="346.0" cy="114" r="4" fill="#936769"/><line x1="331.0" y1="128" x2="361.0" y2="128" stroke="#72686b" stroke-width="2" opacity=".6"/><text x="319.0" y="174" font-family="ui-monospace, SFMono-Regular, Menlo, Consolas, monospace" font-size="11" fill="#271c1c" text-anchor="middle">complaints</text><rect x="387.0" y="70" width="40" height="96" rx="6" fill="#fdf7f3" stroke="#a6603e" stroke-width="1"/><circle cx="407.0" cy="96" r="5" fill="#a6603e" class="pulse"/><line x1="397.0" y1="114" x2="417.0" y2="114" stroke="#72686b" stroke-width="2"/><line x1="397.0" y1="124" x2="413.0" y2="124" stroke="#72686b" stroke-width="2" opacity=".6"/><line x1="397.0" y1="134" x2="417.0" y2="134" stroke="#72686b" stroke-width="2" opacity=".4"/><rect x="435.0" y="94" width="54" height="54" rx="6" fill="#fdf7f3" stroke="#a6603e" stroke-width="1"/><circle cx="462.0" cy="114" r="4" fill="#a6603e"/><line x1="447.0" y1="128" x2="477.0" y2="128" stroke="#72686b" stroke-width="2" opacity=".6"/><text x="435.0" y="174" font-family="ui-monospace, SFMono-Regular, Menlo, Consolas, monospace" font-size="11" fill="#271c1c" text-anchor="middle">projects</text><rect x="503.0" y="70" width="40" height="96" rx="6" fill="#fdf7f3" stroke="#7d7339" stroke-width="1"/><circle cx="523.0" cy="96" r="5" fill="#7d7339" class="pulse"/><line x1="513.0" y1="114" x2="533.0" y2="114" stroke="#72686b" stroke-width="2"/><line x1="513.0" y1="124" x2="529.0" y2="124" stroke="#72686b" stroke-width="2" opacity=".6"/><line x1="513.0" y1="134" x2="533.0" y2="134" stroke="#72686b" stroke-width="2" opacity=".4"/><rect x="551.0" y="94" width="54" height="54" rx="6" fill="#fdf7f3" stroke="#7d7339" stroke-width="1"/><circle cx="578.0" cy="114" r="4" fill="#7d7339"/><line x1="563.0" y1="128" x2="593.0" y2="128" stroke="#72686b" stroke-width="2" opacity=".6"/><text x="551.0" y="174" font-family="ui-monospace, SFMono-Regular, Menlo, Consolas, monospace" font-size="11" fill="#271c1c" text-anchor="middle">topics</text><rect x="619.0" y="70" width="40" height="96" rx="6" fill="#fdf7f3" stroke="#936769" stroke-width="1"/><circle cx="639.0" cy="96" r="5" fill="#936769" class="pulse"/><line x1="629.0" y1="114" x2="649.0" y2="114" stroke="#72686b" stroke-width="2"/><line x1="629.0" y1="124" x2="645.0" y2="124" stroke="#72686b" stroke-width="2" opacity=".6"/><line x1="629.0" y1="134" x2="649.0" y2="134" stroke="#72686b" stroke-width="2" opacity=".4"/><rect x="667.0" y="94" width="54" height="54" rx="6" fill="#fdf7f3" stroke="#936769" stroke-width="1"/><circle cx="694.0" cy="114" r="4" fill="#936769"/><line x1="679.0" y1="128" x2="709.0" y2="128" stroke="#72686b" stroke-width="2" opacity=".6"/><text x="667.0" y="174" font-family="ui-monospace, SFMono-Regular, Menlo, Consolas, monospace" font-size="11" fill="#271c1c" text-anchor="middle">closing</text><text x="380.0" y="278" font-family="ui-monospace, SFMono-Regular, Menlo, Consolas, monospace" font-size="11.5" fill="#72686b" text-anchor="middle">9:16 · 1080×1920　|　1:1 · 1080×1080</text></svg>