<svg xmlns="http://www.w3.org/2000/svg" width="1200" height="520" viewBox="0 0 1200 520" data-palette="e68656-e7d66a-f6acaf-94b6141b82f6" role="img" ><rect width="1200" height="520" fill="#0a090d"/><filter id="nbglow" x="-60%" y="-60%" width="220%" height="220%"><feGaussianBlur stdDeviation="3.2" result="b"/><feMerge><feMergeNode in="b"/><feMergeNode in="SourceGraphic"/></feMerge></filter><circle cx="600" cy="250" r="210" fill="none" stroke="#e68656" stroke-width="1" opacity="0.3"/><circle cx="600" cy="250" r="150" fill="none" stroke="#e68656" stroke-width="1" opacity="0.4"/><circle cx="600" cy="250" r="96" fill="none" stroke="#e68656" stroke-width="1" opacity="0.5"/><circle cx="1335.0" cy="250.0" r="0.42" fill="#e68656"/><circle cx="1125.0" cy="250.0" r="0.62" fill="#e68656"/><circle cx="1020.0" cy="250.0" r="0.82" fill="#e68656"/><circle cx="1309.9554823224653" cy="440.23199815035275" r="0.42" fill="#e7d66a"/><circle cx="1107.111058801761" cy="385.8799986788234" r="0.62" fill="#e7d66a"/><circle cx="1005.6888470414087" cy="358.7039989430587" r="0.82" fill="#e7d66a"/><circle cx="1236.5286717815625" cy="617.5" r="0.42" fill="#f6acaf"/><circle cx="1054.6633369868302" cy="512.5" r="0.62" fill="#f6acaf"/><circle cx="963.7306695894642" cy="460.0" r="0.82" fill="#f6acaf"/><circle cx="1119.7234841721124" cy="769.7234841721124" r="0.42" fill="#e68656"/><circle cx="971.2310601229375" cy="621.2310601229374" r="0.62" fill="#e68656"/><circle cx="896.98484809835" cy="546.9848480983499" r="0.82" fill="#e68656"/><circle cx="967.5" cy="886.5286717815624" r="0.42" fill="#e7d66a"/><circle cx="862.5" cy="704.6633369868302" r="0.62" fill="#e7d66a"/><circle cx="810.0" cy="613.7306695894642" r="0.82" fill="#e7d66a"/><circle cx="790.2319981503528" cy="959.9554823224652" r="0.42" fill="#f6acaf"/><circle cx="735.8799986788234" cy="757.1110588017609" r="0.62" fill="#f6acaf"/><circle cx="708.7039989430587" cy="655.6888470414087" r="0.82" fill="#f6acaf"/><circle cx="600.0" cy="985.0" r="0.42" fill="#e68656"/><circle cx="600.0" cy="775.0" r="0.62" fill="#e68656"/><circle cx="600.0" cy="670.0" r="0.82" fill="#e68656"/><circle cx="409.76800184964713" cy="959.9554823224652" r="0.42" fill="#e7d66a"/><circle cx="464.1200013211766" cy="757.1110588017609" r="0.62" fill="#e7d66a"/><circle cx="491.29600105694124" cy="655.6888470414087" r="0.82" fill="#e7d66a"/><circle cx="232.5000000000001" cy="886.5286717815625" r="0.42" fill="#f6acaf"/><circle cx="337.5000000000001" cy="704.6633369868302" r="0.62" fill="#f6acaf"/><circle cx="390.00000000000006" cy="613.7306695894642" r="0.82" fill="#f6acaf"/><circle cx="80.27651582788758" cy="769.7234841721124" r="0.42" fill="#e68656"/><circle cx="228.76893987706256" cy="621.2310601229375" r="0.62" fill="#e68656"/><circle cx="303.0151519016501" cy="546.98484809835" r="0.82" fill="#e68656"/><circle cx="-36.52867178156248" cy="617.5" r="0.42" fill="#e7d66a"/><circle cx="145.3366630131697" cy="512.5" r="0.62" fill="#e7d66a"/><circle cx="236.26933041053576" cy="460.0" r="0.82" fill="#e7d66a"/><circle cx="-109.95548232246517" cy="440.231998150353" r="0.42" fill="#f6acaf"/><circle cx="92.8889411982392" cy="385.87999867882354" r="0.62" fill="#f6acaf"/><circle cx="194.31115295859138" cy="358.7039989430588" r="0.82" fill="#f6acaf"/><circle cx="-135.0" cy="250.00000000000009" r="0.42" fill="#e68656"/><circle cx="75.0" cy="250.00000000000006" r="0.62" fill="#e68656"/><circle cx="180.0" cy="250.00000000000006" r="0.82" fill="#e68656"/><circle cx="-109.95548232246517" cy="59.76800184964722" r="0.42" fill="#e7d66a"/><circle cx="92.88894119823914" cy="114.12000132117657" r="0.62" fill="#e7d66a"/><circle cx="194.31115295859132" cy="141.29600105694126" r="0.82" fill="#e7d66a"/><circle cx="-36.528671781562366" cy="-117.50000000000006" r="0.42" fill="#f6acaf"/><circle cx="145.33666301316975" cy="-12.500000000000057" r="0.62" fill="#f6acaf"/><circle cx="236.26933041053582" cy="39.99999999999994" r="0.82" fill="#f6acaf"/><circle cx="80.27651582788747" cy="-269.7234841721124" r="0.42" fill="#e68656"/><circle cx="228.76893987706245" cy="-121.23106012293744" r="0.62" fill="#e68656"/><circle cx="303.01515190165" cy="-46.984848098349914" r="0.82" fill="#e68656"/><circle cx="232.49999999999966" cy="-386.52867178156225" r="0.42" fill="#e7d66a"/><circle cx="337.4999999999998" cy="-204.66333698683013" r="0.62" fill="#e7d66a"/><circle cx="389.9999999999998" cy="-113.73066958946413" r="0.82" fill="#e7d66a"/><circle cx="409.76800184964736" cy="-459.9554823224652" r="0.42" fill="#f6acaf"/><circle cx="464.1200013211767" cy="-257.11105880176086" r="0.62" fill="#f6acaf"/><circle cx="491.29600105694135" cy="-155.68884704140868" r="0.82" fill="#f6acaf"/><circle cx="599.9999999999999" cy="-485.0" r="0.42" fill="#e68656"/><circle cx="599.9999999999999" cy="-275.0" r="0.62" fill="#e68656"/><circle cx="599.9999999999999" cy="-170.0" r="0.82" fill="#e68656"/><circle cx="790.2319981503524" cy="-459.9554823224653" r="0.42" fill="#e7d66a"/><circle cx="735.8799986788231" cy="-257.1110588017609" r="0.62" fill="#e7d66a"/><circle cx="708.7039989430585" cy="-155.68884704140874" r="0.82" fill="#e7d66a"/><circle cx="967.5" cy="-386.52867178156237" r="0.42" fill="#f6acaf"/><circle cx="862.5" cy="-204.66333698683025" r="0.62" fill="#f6acaf"/><circle cx="810.0" cy="-113.73066958946418" r="0.82" fill="#f6acaf"/><circle cx="1119.7234841721124" cy="-269.72348417211253" r="0.42" fill="#e68656"/><circle cx="971.2310601229374" cy="-121.23106012293755" r="0.62" fill="#e68656"/><circle cx="896.9848480983499" cy="-46.98484809835003" r="0.82" fill="#e68656"/><circle cx="1236.5286717815623" cy="-117.50000000000034" r="0.42" fill="#e7d66a"/><circle cx="1054.66333698683" cy="-12.500000000000227" r="0.62" fill="#e7d66a"/><circle cx="963.7306695894641" cy="39.9999999999998" r="0.82" fill="#e7d66a"/><circle cx="1309.9554823224653" cy="59.768001849647305" r="0.42" fill="#f6acaf"/><circle cx="1107.111058801761" cy="114.12000132117663" r="0.62" fill="#f6acaf"/><circle cx="1005.6888470414087" cy="141.2960010569413" r="0.82" fill="#f6acaf"/><line x1="683" y1="298" x2="782" y2="355" stroke="#3a251d" stroke-width="1"/><line x1="600" y1="346" x2="600" y2="460" stroke="#3a251d" stroke-width="1"/><line x1="517" y1="298" x2="418" y2="355" stroke="#3a251d" stroke-width="1"/><line x1="517" y1="202" x2="418" y2="145" stroke="#3a251d" stroke-width="1"/><line x1="600" y1="154" x2="600" y2="40" stroke="#3a251d" stroke-width="1"/><line x1="683" y1="202" x2="782" y2="145" stroke="#3a251d" stroke-width="1"/><rect x="554" y="204" width="92" height="92" rx="22" fill="#131217" stroke="#e68656" stroke-width="2" filter="url(#nbglow)"/><text x="600" y="266" font-family="-apple-system, 'PingFang SC', 'Hiragino Sans GB', 'Noto Sans SC', sans-serif" font-size="44" fill="#e68656" text-anchor="middle" font-weight="600">年</text><rect x="194" y="112" width="172" height="36" rx="18" fill="#141013" stroke="#3a251d" stroke-width="1"/><text x="280" y="135" font-family="ui-monospace, SFMono-Regular, Menlo, Consolas, monospace" font-size="13" fill="#b2a6a8" text-anchor="middle">Claude Code</text><rect x="834" y="112" width="172" height="36" rx="18" fill="#141013" stroke="#3a251d" stroke-width="1"/><text x="920" y="135" font-family="ui-monospace, SFMono-Regular, Menlo, Consolas, monospace" font-size="13" fill="#b2a6a8" text-anchor="middle">Zcode / GLM</text><rect x="514" y="482" width="172" height="36" rx="18" fill="#141013" stroke="#3a251d" stroke-width="1"/><text x="600" y="505" font-family="ui-monospace, SFMono-Regular, Menlo, Consolas, monospace" font-size="13" fill="#b2a6a8" text-anchor="middle">chat JSONL</text><text x="600" y="100" font-family="-apple-system, 'PingFang SC', 'Hiragino Sans GB', 'Noto Sans SC', sans-serif" font-size="30" fill="#fdeeef" text-anchor="middle" font-weight="700">nianbao 年报</text><text x="600" y="132" font-family="-apple-system, 'PingFang SC', 'Hiragino Sans GB', 'Noto Sans SC', sans-serif" font-size="14" fill="#b2a6a8" text-anchor="middle">AI 协作年报 · AI Collaboration Yearbook</text><text x="600" y="400" font-family="-apple-system, 'PingFang SC', 'Hiragino Sans GB', 'Noto Sans SC', sans-serif" font-size="15" fill="#e7d66a" text-anchor="middle">本地日志 → 12 张可分享的年报卡片</text></svg>